<svg width="41" height="40" viewBox="0 0 41 40" fill="none" xmlns="http://www.w3.org/2000/svg">
<path fill-rule="evenodd" clip-rule="evenodd" d="M20.5 0C9.45 0 0.5 9.17638 0.5 20.5059C0.5 29.5797 6.225 37.2438 14.175 39.9608C15.175 40.1403 15.55 39.5251 15.55 38.9868C15.55 38.4998 15.525 36.8849 15.525 35.1676C10.5 36.116 9.2 33.9116 8.8 32.7581C8.575 32.1686 7.6 30.3487 6.75 29.8617C6.05 29.4772 5.05 28.5288 6.725 28.5032C8.3 28.4775 9.425 29.9898 9.8 30.605C11.6 33.7065 14.475 32.835 15.625 32.2968C15.8 30.9639 16.325 30.0667 16.9 29.5541C12.45 29.0414 7.8 27.2728 7.8 19.4293C7.8 17.1993 8.575 15.3538 9.85 13.9184C9.65 13.4057 8.95 11.3039 10.05 8.48431C10.05 8.48431 11.725 7.94603 15.55 10.5862C17.15 10.1248 18.85 9.89408 20.55 9.89408C22.25 9.89408 23.95 10.1248 25.55 10.5862C29.375 7.92039 31.05 8.48431 31.05 8.48431C32.15 11.3039 31.45 13.4057 31.25 13.9184C32.525 15.3538 33.3 17.1737 33.3 19.4293C33.3 27.2984 28.625 29.0414 24.175 29.5541C24.9 30.1949 25.525 31.4253 25.525 33.3477C25.525 36.0903 25.5 38.2947 25.5 38.9868C25.5 39.5251 25.875 40.1659 26.875 39.9608C30.8453 38.5865 34.2953 35.9702 36.7394 32.4802C39.1836 28.9903 40.4988 24.8023 40.5 20.5059C40.5 9.17638 31.55 0 20.5 0Z" fill="black"/>
</svg>
