<svg width="40" height="40" viewBox="0 0 40 40" fill="none" xmlns="http://www.w3.org/2000/svg">
<g clip-path="url(#clip0)">
<path d="M34.0809 34.0818H28.1542V24.8001C28.1542 22.5868 28.1146 19.7376 25.0717 19.7376C21.9848 19.7376 21.5124 22.1491 21.5124 24.639V34.0812H15.5859V14.9943H21.2754V17.6027H21.3551C21.9245 16.6292 22.7473 15.8282 23.7358 15.2853C24.7244 14.7423 25.8417 14.4776 26.9688 14.5195C32.9759 14.5195 34.0834 18.4707 34.0834 23.611L34.0809 34.0818ZM8.89837 12.3854C6.99884 12.3857 5.45868 10.846 5.45837 8.94649C5.45806 7.04696 6.99759 5.5068 8.89712 5.50649C10.7966 5.50602 12.3368 7.04571 12.3371 8.94524C12.3373 9.85743 11.9751 10.7323 11.3302 11.3775C10.6853 12.0226 9.81056 12.3852 8.89837 12.3854ZM11.8618 34.082H5.92884V14.9943H11.8616V34.0818L11.8618 34.082ZM37.0356 0.00227036H2.95071C1.33977 -0.0158546 0.0186804 1.27461 -0.00100708 2.88555V37.1126C0.0180554 38.7243 1.33899 40.016 2.95056 39.9991H37.0356C38.6506 40.0191 39.9767 38.7274 39.999 37.1126V2.8829C39.976 1.26883 38.6498 -0.0214796 37.0356 -0.000385886" fill="#0A66C2"/>
</g>
<defs>
<clipPath id="clip0">
<rect width="40" height="40" fill="white"/>
</clipPath>
</defs>
</svg>
