<svg width="516" height="302" viewBox="0 0 516 302" fill="none" xmlns="http://www.w3.org/2000/svg">
<path fill-rule="evenodd" clip-rule="evenodd" d="M12.6986 159.771C1.8617 127.619 -9.79591 92.4905 18.5166 64.0903C47.9819 34.5337 106.301 18.531 163.385 8.61817C219.92 -1.1994 280.595 -2.24129 336.529 8.86626C391.889 19.8599 439.067 41.6597 470.998 69.7054C501.873 96.8237 526.076 130.567 510.35 161.537C495.47 190.841 426.212 196.872 394.056 221.228C362.633 245.028 377.248 290.17 327.775 299.82C278.602 309.412 238.699 273.387 191.562 260.727C152.324 250.189 105.931 249.362 75.0966 231.958C40.8046 212.603 21.793 186.753 12.6986 159.771Z" fill="#55FFCC"/>
</svg>
