<svg width="94" height="44" viewBox="0 0 94 44" fill="none" xmlns="http://www.w3.org/2000/svg">
<g filter="url(#filter0_d)">
<path d="M15.056 27.436H25.328V35.5H4.4V1.516H15.056V27.436ZM39.3373 10.012V14.188H49.8973V22.204H39.3373V27.004H51.3373V35.5H28.6813V1.516H51.3373V10.012H39.3373ZM71.9131 35.836C68.7131 35.836 65.7691 35.084 63.0811 33.58C60.4251 32.076 58.3131 29.996 56.7451 27.34C55.1771 24.684 54.3931 21.692 54.3931 18.364C54.3931 15.036 55.1771 12.044 56.7451 9.388C58.3131 6.732 60.4251 4.668 63.0811 3.196C65.7691 1.692 68.7131 0.939999 71.9131 0.939999C75.1131 0.939999 78.0411 1.692 80.6971 3.196C83.3531 4.668 85.4491 6.732 86.9851 9.388C88.5531 12.044 89.3371 15.036 89.3371 18.364C89.3371 21.692 88.5531 24.684 86.9851 27.34C85.4491 29.996 83.3371 32.076 80.6491 33.58C77.9931 35.084 75.0811 35.836 71.9131 35.836ZM71.9131 25.9C74.0251 25.9 75.6571 25.228 76.8091 23.884C77.9611 22.508 78.5371 20.668 78.5371 18.364C78.5371 16.028 77.9611 14.188 76.8091 12.844C75.6571 11.468 74.0251 10.78 71.9131 10.78C69.7691 10.78 68.1211 11.468 66.9691 12.844C65.8171 14.188 65.2411 16.028 65.2411 18.364C65.2411 20.668 65.8171 22.508 66.9691 23.884C68.1211 25.228 69.7691 25.9 71.9131 25.9Z" fill="#55FFCC"/>
</g>
<defs>
<filter id="filter0_d" x="0.400024" y="0.940002" width="92.9371" height="42.896" filterUnits="userSpaceOnUse" color-interpolation-filters="sRGB">
<feFlood flood-opacity="0" result="BackgroundImageFix"/>
<feColorMatrix in="SourceAlpha" type="matrix" values="0 0 0 0 0 0 0 0 0 0 0 0 0 0 0 0 0 0 127 0"/>
<feOffset dy="4"/>
<feGaussianBlur stdDeviation="2"/>
<feColorMatrix type="matrix" values="0 0 0 0 0 0 0 0 0 0 0 0 0 0 0 0 0 0 0.25 0"/>
<feBlend mode="normal" in2="BackgroundImageFix" result="effect1_dropShadow"/>
<feBlend mode="normal" in="SourceGraphic" in2="effect1_dropShadow" result="shape"/>
</filter>
</defs>
</svg>
